<svg viewBox="0 0 30 30" xmlns="http://www.w3.org/2000/svg">
<g clip-path="url(#clip0_2_420)">
<path d="M29.8187 14.2396C26.9942 8.72865 21.4026 5 15 5C8.59737 5 3.00414 8.73125 0.181222 14.2401C0.0620767 14.4758 0 14.7362 0 15.0003C0 15.2643 0.0620767 15.5247 0.181222 15.7604C3.0057 21.2714 8.59737 25 15 25C21.4026 25 26.9958 21.2687 29.8187 15.7599C29.9379 15.5242 29.9999 15.2638 29.9999 14.9997C29.9999 14.7357 29.9379 14.4753 29.8187 14.2396ZM15 22.5C13.5166 22.5 12.0666 22.0601 10.8332 21.236C9.59982 20.4119 8.63853 19.2406 8.07087 17.8701C7.50322 16.4997 7.35469 14.9917 7.64408 13.5368C7.93347 12.082 8.64778 10.7456 9.69667 9.6967C10.7456 8.6478 12.0819 7.9335 13.5368 7.64411C14.9916 7.35472 16.4996 7.50325 17.8701 8.0709C19.2405 8.63856 20.4119 9.59985 21.236 10.8332C22.0601 12.0666 22.5 13.5166 22.5 15C22.5004 15.985 22.3068 16.9605 21.93 17.8707C21.5533 18.7809 21.0009 19.6078 20.3043 20.3044C19.6078 21.0009 18.7808 21.5533 17.8707 21.9301C16.9605 22.3068 15.985 22.5005 15 22.5ZM15 10C14.5537 10.0062 14.1103 10.0726 13.6817 10.1974C14.035 10.6774 14.2045 11.2682 14.1595 11.8625C14.1146 12.4568 13.8581 13.0153 13.4367 13.4367C13.0153 13.8582 12.4567 14.1146 11.8624 14.1596C11.2681 14.2045 10.6774 14.035 10.1974 13.6818C9.92402 14.6888 9.97336 15.7563 10.3385 16.7339C10.7035 17.7114 11.366 18.5499 12.2326 19.1312C13.0992 19.7126 14.1262 20.0075 15.1692 19.9746C16.2122 19.9416 17.2186 19.5824 18.0468 18.9476C18.8749 18.3127 19.4832 17.4341 19.7858 16.4354C20.0885 15.4368 20.0704 14.3683 19.734 13.3805C19.3976 12.3927 18.7599 11.5352 17.9107 10.9288C17.0615 10.3224 16.0435 9.99754 15 10Z" />
</g>
<defs>
<clipPath id="clip0_2_420">
<rect width="30" height="30" />
</clipPath>
</defs>
</svg>
