<svg viewBox="0 0 32 32" xmlns="http://www.w3.org/2000/svg">
<g clip-path="url(#clip0_21_4567)">
<path opacity="0.111111" fill-rule="evenodd" clip-rule="evenodd" d="M6.74591 22.9983C6.37402 23.3136 5.99221 23.6373 5.59269 23.9678L5.2996 23.6312C5.6899 23.3083 6.06572 22.9895 6.43422 22.6769C8.21336 21.1676 9.82159 19.8032 12.0629 18.8294C14.7759 17.6505 18.4011 17.0462 24.3812 17.3708C25.7981 17.4477 26.805 17.2215 27.4783 16.8063C28.1436 16.396 28.5062 15.7873 28.6129 15.0402C28.8299 13.5209 27.9833 11.4337 26.3955 9.44784C24.8156 7.472 22.5373 5.64263 19.975 4.63552C17.4162 3.62978 14.5853 3.44708 11.8738 4.73999L11.6748 4.34338C14.5261 2.9838 17.4943 3.18439 20.1444 4.22603C22.791 5.2663 25.1312 7.14841 26.7528 9.17642C28.3663 11.1944 29.3041 13.4035 29.0615 15.1011C28.9385 15.9625 28.5103 16.6924 27.7205 17.1794C26.9387 17.6616 25.8262 17.8914 24.3561 17.8117C18.4137 17.4891 14.8691 18.0934 12.2473 19.2326C10.0731 20.1774 8.52272 21.4918 6.74591 22.9983Z" />
<path opacity="0.222222" fill-rule="evenodd" clip-rule="evenodd" d="M5.52852 19.9955C5.09072 20.1777 4.63964 20.3654 4.16827 20.5552L3.82249 19.739C4.27165 19.5582 4.70835 19.3761 5.13804 19.197C7.22416 18.3274 9.14507 17.5267 11.5234 17.2729C14.4081 16.965 17.935 17.4575 23.2992 19.4597C24.5392 19.9226 25.473 19.9886 26.1499 19.818C26.8092 19.6518 27.2753 19.2491 27.5757 18.6524C28.1989 17.4145 28.0952 15.3482 27.2686 13.1097C26.4506 10.8946 24.9617 8.61798 22.9758 7.00293C20.9961 5.39283 18.5402 4.45164 15.7527 4.847L15.6223 3.97316C18.7168 3.53425 21.4234 4.59028 23.5562 6.3249C25.683 8.05455 27.2567 10.4701 28.121 12.8107C28.9766 15.1278 29.1747 17.4807 28.389 19.0414C27.9849 19.844 27.3187 20.4355 26.3767 20.6729C25.4524 20.9058 24.3159 20.7848 22.9753 20.2844C17.6824 18.3088 14.3087 17.864 11.622 18.1507C9.38869 18.389 7.60849 19.1299 5.52852 19.9955Z" />
<path opacity="0.333333" fill-rule="evenodd" clip-rule="evenodd" d="M5.27068 16.93C4.81345 16.9708 4.34054 17.013 3.84616 17.0515L3.73801 15.7311C4.19666 15.6954 4.64649 15.6548 5.09077 15.6148C7.26046 15.4192 9.29769 15.2355 11.5815 15.6889C14.3577 16.24 17.457 17.7128 21.7489 21.0639C22.7135 21.8171 23.4968 22.1122 24.0982 22.1461C24.6734 22.1786 25.1559 21.9773 25.5692 21.5655C26.4475 20.6904 26.9856 18.871 26.9196 16.6326C26.8548 14.4308 26.2063 11.9896 24.9194 10.0047C23.6391 8.03011 21.7455 6.52925 19.1654 6.1088L19.3895 4.80236C22.4267 5.29731 24.6259 7.07275 26.0681 9.29701C27.5036 11.5109 28.2072 14.191 28.278 16.5946C28.3477 18.9617 27.8052 21.2318 26.5405 22.4918C25.8823 23.1477 25.0278 23.5254 24.0197 23.4685C23.0378 23.4131 21.9914 22.9504 20.8993 22.0977C16.6978 18.8171 13.7948 17.48 11.3103 16.9868C9.23941 16.5757 7.42982 16.7372 5.27068 16.93Z" />
<path opacity="0.444444" fill-rule="evenodd" clip-rule="evenodd" d="M5.89843 14.0708C5.46693 13.9764 5.0188 13.8784 4.5498 13.7704L4.96654 12.0516C5.38931 12.149 5.80765 12.24 6.22249 12.3302C8.26119 12.7734 10.2153 13.1983 12.1944 14.2785C14.6062 15.595 17.0115 17.8439 19.9184 22.1107C20.5509 23.0393 21.1378 23.485 21.6103 23.6627C22.0517 23.8288 22.4787 23.7948 22.9236 23.5703C23.8984 23.0782 24.9126 21.672 25.5247 19.6605C26.1229 17.6947 26.269 15.3564 25.7127 13.2509C25.1609 11.1621 23.9312 9.33436 21.7833 8.25656L22.6127 6.68633C25.3075 8.03863 26.8133 10.3348 27.4674 12.8105C28.117 15.2695 27.9393 17.9363 27.2618 20.1628C26.5981 22.3436 25.3844 24.317 23.7568 25.1386C22.9005 25.5708 21.9327 25.6772 20.9579 25.3104C20.0141 24.9553 19.1633 24.195 18.409 23.0877C15.5883 18.9474 13.3757 16.9476 11.3091 15.8195C9.58081 14.8761 7.9227 14.5135 5.89843 14.0708Z" />
<path opacity="0.555556" fill-rule="evenodd" clip-rule="evenodd" d="M7.26571 11.639C6.89934 11.4286 6.51715 11.209 6.11673 10.9732L7.28816 9.08378C7.63812 9.28993 7.98787 9.4901 8.33618 9.68945C10.0595 10.6757 11.7477 11.6419 13.2528 13.213C15.092 15.1328 16.6226 17.8917 17.9953 22.5892C18.283 23.5739 18.6603 24.0886 18.9807 24.3404C19.2702 24.568 19.5941 24.6471 20.0012 24.5835C20.9294 24.4386 22.2169 23.5372 23.3591 21.9298C24.4675 20.3699 25.2798 18.3577 25.4012 16.3622C25.5213 14.3894 24.9697 12.4708 23.4014 10.944L25.0019 9.38198C27.1116 11.4359 27.8129 14.0138 27.6621 16.493C27.5126 18.9494 26.53 21.3445 25.221 23.1868C23.9457 24.9814 22.193 26.477 20.3595 26.7633C19.3858 26.9154 18.3985 26.7187 17.5591 26.059C16.7505 25.4235 16.1811 24.4395 15.8171 23.1939C14.4983 18.6811 13.1005 16.2887 11.5974 14.7197C10.3354 13.4024 8.97226 12.6193 7.26571 11.639Z" />
<path opacity="0.666667" fill-rule="evenodd" clip-rule="evenodd" d="M9.17594 9.79094C8.90471 9.49354 8.6204 9.18178 8.32258 8.84806L10.3731 7.10939C10.6249 7.39149 10.8797 7.66974 11.1346 7.94815C12.4049 9.33547 13.6784 10.7263 14.5955 12.6127C15.7196 14.9247 16.2926 17.8966 16.1468 22.5418C16.1176 23.4738 16.3016 23.9842 16.4764 24.2429C16.6266 24.4651 16.8286 24.5941 17.1494 24.6448C17.9223 24.7668 19.2738 24.383 20.7559 23.2911C23.7243 21.1041 25.7754 17.2324 23.9516 13.7935L26.3658 12.5769C29.0884 17.7102 25.8168 22.8832 22.3947 25.4045C20.6815 26.6667 18.5708 27.5529 16.7148 27.2599C15.7211 27.1029 14.8169 26.6032 14.2067 25.7C13.6212 24.8335 13.3907 23.7222 13.4303 22.4608C13.5688 18.0486 13.0117 15.5411 12.1395 13.7472C11.4037 12.2337 10.4296 11.1656 9.17594 9.79094Z" />
<path opacity="0.777778" fill-rule="evenodd" clip-rule="evenodd" d="M11.4095 8.6112C11.2516 8.26233 11.0853 7.8947 10.9121 7.50081L13.8264 6.2832C13.9676 6.60435 14.1136 6.9249 14.2604 7.24722C14.9974 8.86579 15.7546 10.5288 16.0332 12.5351C16.3758 15.0023 16.0078 17.8912 14.5074 22.053C14.2217 22.8456 14.2518 23.2953 14.3127 23.507C14.3602 23.6726 14.4502 23.7916 14.6624 23.8994C15.2183 24.182 16.4474 24.2557 18.0632 23.718C21.2996 22.6411 24.1011 19.8646 23.5032 16.445L26.6289 15.9257C27.6109 21.5421 22.9773 25.3486 19.0876 26.6429C17.1404 27.2909 14.8837 27.4975 13.1965 26.64C12.2871 26.1778 11.5662 25.4086 11.2593 24.3404C10.9657 23.3183 11.0977 22.1885 11.5159 21.0284C12.9226 17.1264 13.1421 14.7575 12.8911 12.9496C12.678 11.4151 12.1329 10.2101 11.4095 8.6112Z" />
<path opacity="0.888889" fill-rule="evenodd" clip-rule="evenodd" d="M13.7439 8.11301C13.705 7.7504 13.6637 7.36611 13.6236 6.9532L17.2313 6.62061C17.2627 6.94434 17.2987 7.27103 17.3352 7.60128C17.5197 9.27352 17.7142 11.0369 17.3683 12.9685C16.9414 15.3526 15.7393 17.8934 13.1657 21.2321C12.7054 21.8292 12.6347 22.1846 12.6298 22.3159C12.6269 22.3967 12.6385 22.4594 12.7467 22.5682C13.0751 22.8986 14.0425 23.3134 15.5966 23.298C18.7092 23.2671 21.8042 21.6344 22.2397 18.5976L25.8285 19.0865C25.031 24.6488 19.57 26.791 15.6335 26.83C13.6632 26.8496 11.4829 26.3731 10.144 25.0259C9.41855 24.2959 8.96676 23.3232 9.0084 22.1895C9.04819 21.1065 9.53011 20.0683 10.2686 19.1103C12.6456 16.0268 13.5049 14.0009 13.7986 12.3611C14.0497 10.959 13.9208 9.75954 13.7439 8.11301Z" />
<path fill-rule="evenodd" clip-rule="evenodd" d="M15.9827 8.24756C16.0558 7.90712 16.1338 7.54406 16.2219 7.15247L20.204 8.00392C20.1377 8.29814 20.0743 8.59843 20.0098 8.90375C19.6803 10.4636 19.3231 12.1547 18.426 13.8368C17.3143 15.9216 15.458 17.9047 12.169 20.1983C11.6245 20.5779 11.509 20.8297 11.4934 20.8722C11.4934 20.8722 11.4934 20.8722 11.4934 20.8722C11.4962 20.8808 11.5013 20.8939 11.5102 20.912C11.6482 21.1917 12.2774 21.7975 13.6091 22.2124C16.2744 23.0426 19.2547 22.4474 20.4332 20.0436L24.1115 21.7569C21.6629 26.7517 15.9601 27.1164 12.3681 25.9975C10.5712 25.4377 8.67835 24.3417 7.83597 22.6335C7.37787 21.7046 7.25549 20.6205 7.65558 19.532C8.0376 18.4926 8.82214 17.6462 9.79693 16.9664C12.7819 14.8849 14.0962 13.3404 14.8088 12.0041C15.4237 10.851 15.6542 9.77775 15.9827 8.24756ZM11.4901 20.8602C11.4901 20.8602 11.4902 20.8606 11.4903 20.8615C11.4902 20.8606 11.4901 20.8602 11.4901 20.8602Z" />
</g>
<defs>
<clipPath id="clip0_21_4567">
<rect width="32" height="32" />
</clipPath>
</defs>
</svg>
