<svg viewBox="0 0 30 30" xmlns="http://www.w3.org/2000/svg">
<path d="M0 17.9851C0 14.7488 0 13.1307 0.900541 12.0462C1.05429 11.861 1.22482 11.6905 1.40997 11.5368C2.49446 10.6362 4.1126 10.6362 7.34888 10.6362H17.6832C20.9195 10.6362 22.5377 10.6362 23.6221 11.5368C23.8073 11.6905 23.9778 11.861 24.1316 12.0462C25.0321 13.1307 25.0321 14.7488 25.0321 17.9851C25.0321 21.2213 25.0321 22.8395 24.1316 23.9239C23.9778 24.1091 23.8073 24.2796 23.6221 24.4334C22.5377 25.3339 20.9195 25.3339 17.6832 25.3339H7.34888C4.1126 25.3339 2.49446 25.3339 1.40997 24.4334C1.22482 24.2796 1.05429 24.1091 0.900541 23.9239C0 22.8395 0 21.2213 0 17.9851Z"  fill-opacity="0.2"/>
<path d="M10.0574 15.8447C10.1192 15.4099 10.5759 15.1539 10.979 15.3282C12.4711 15.9735 13.4444 16.5617 14.6022 17.5889C14.9052 17.8577 14.8949 18.3316 14.5825 18.5894C13.4347 19.5363 12.4595 20.1444 10.9927 20.8353C10.5875 21.0262 10.1143 20.7734 10.0494 20.3302C9.83151 18.844 9.79987 17.6572 10.0574 15.8447Z" />
<path d="M25.5385 7.47648L27.1883 9.12697C27.2578 9.1965 27.2245 9.34324 27.1142 9.45358L20.7736 15.7952L18.5224 16.5372C18.2215 16.6369 18.0295 16.4448 18.1292 16.1438L18.8713 13.8921L25.2119 7.55057C25.3222 7.44023 25.4689 7.40694 25.5385 7.47648ZM29.4946 6.06469L28.602 5.17174C28.324 4.8936 27.7396 5.02622 27.2959 5.46811L26.2682 6.49601C26.1578 6.60635 26.1245 6.75308 26.194 6.82262L27.8439 8.47311C27.9134 8.54264 28.0601 8.50935 28.1705 8.39902L29.1982 7.37112C29.64 6.9274 29.7727 6.34282 29.4946 6.06469Z" />
</svg>
