<svg width="60" height="23" viewBox="0 0 60 23" fill="none" xmlns="http://www.w3.org/2000/svg">
<path d="M18 5C18 2.23858 20.2386 0 23 0H36C38.7614 0 41 2.23858 41 5V9C41 11.7614 38.7614 14 36 14H23C20.2386 14 18 11.7614 18 9V5Z" fill="#4D92FF"/>
<path d="M46.2343 13.1733C46.9161 11.973 48.4418 11.5527 49.6421 12.2345L57.0315 16.4316C58.2318 17.1134 58.6521 18.6391 57.9704 19.8394V19.8394C57.2886 21.0398 55.7629 21.4601 54.5625 20.7783L47.1732 16.5812C45.9729 15.8994 45.5525 14.3737 46.2343 13.1733V13.1733Z" fill="#4D92FF"/>
<path d="M13.0448 13.1937C13.7061 14.4054 13.2599 15.9238 12.0482 16.585L4.58852 20.656C3.3768 21.3173 1.85844 20.871 1.19716 19.6593V19.6593C0.53589 18.4476 0.982116 16.9292 2.19384 16.268L9.65349 12.197C10.8652 11.5357 12.3836 11.982 13.0448 13.1937V13.1937Z" fill="#4D92FF"/>
</svg>
