<svg width="78" height="46" viewBox="0 0 78 46" fill="none" xmlns="http://www.w3.org/2000/svg">
<path d="M47.1339 28.8918L50.0115 15.3988C50.1314 14.7791 50.3612 14.1994 50.7009 13.6597C51.0606 13.1 51.4803 12.6203 51.9599 12.2205C52.4594 11.8207 53.009 11.5008 53.6085 11.261C54.208 11.0211 54.8175 10.9012 55.437 10.9012H70.4245C71.044 10.9012 71.6035 11.0211 72.1031 11.261C72.6026 11.5008 73.0123 11.8207 73.332 12.2205C73.6518 12.6203 73.8716 13.1 73.9915 13.6597C74.1114 14.1994 74.1114 14.7791 73.9915 15.3988L71.1139 28.8918C70.974 29.5115 70.7242 30.1012 70.3645 30.6609C70.0248 31.2006 69.6051 31.6704 69.1056 32.0702C68.626 32.4699 68.0864 32.7898 67.4869 33.0297C66.8874 33.2695 66.2779 33.3895 65.6584 33.3895H50.6709C50.0514 33.3895 49.4919 33.2695 48.9923 33.0297C48.4927 32.7898 48.0831 32.4699 47.7634 32.0702C47.4436 31.6704 47.2238 31.2006 47.1039 30.6609C46.984 30.1012 46.994 29.5115 47.1339 28.8918ZM54.9574 27.3926C54.8574 27.8124 54.9174 28.1722 55.1372 28.472C55.377 28.7519 55.7067 28.8918 56.1264 28.8918H62.1214C62.541 28.8918 62.9207 28.7519 63.2604 28.472C63.6201 28.1722 63.8499 27.8124 63.9499 27.3926L66.168 16.898C66.2679 16.4783 66.198 16.1284 65.9582 15.8486C65.7384 15.5487 65.4186 15.3988 64.999 15.3988H59.004C58.5843 15.3988 58.1947 15.5487 57.835 15.8486C57.4952 16.1284 57.2754 16.4783 57.1755 16.898L54.9574 27.3926Z" fill="white"/>
<path d="M28.6064 24.3941L27.9769 27.3926C27.877 27.8124 27.9369 28.1722 28.1568 28.472C28.3966 28.7519 28.7263 28.8918 29.1459 28.8918H44.1334L43.1742 33.3895H23.6905C23.071 33.3895 22.5115 33.2695 22.0119 33.0297C21.5123 32.7898 21.1026 32.4699 20.7829 32.0702C20.4632 31.6704 20.2434 31.2006 20.1235 30.6609C20.0036 30.1012 20.0135 29.5115 20.1534 28.8918L23.031 15.3988C23.1509 14.7791 23.3807 14.1994 23.7205 13.6597C24.0802 13.1 24.4998 12.6203 24.9794 12.2205C25.479 11.8207 26.0285 11.5008 26.628 11.261C27.2275 11.0211 27.837 10.9012 28.4565 10.9012H47.9403L47.011 15.3988H32.0235C31.6039 15.3988 31.2142 15.5487 30.8545 15.8486C30.5148 16.1284 30.295 16.4783 30.1951 16.898L28.6064 24.3941ZM45.0926 24.3941H30.0752L31.0344 19.8965H46.0518L45.0926 24.3941Z" fill="white"/>
<path d="M20.3117 11.1796L14.8423 35.1886C14.7424 35.6083 14.8024 35.9681 15.0222 36.268C15.262 36.5478 15.5917 36.6878 16.0114 36.6878H69.3065L67.2346 45.0277H3.65004C3.03055 45.0277 2.47102 44.9078 1.97143 44.6679C1.47185 44.428 1.06219 44.1082 0.742458 43.7084C0.422725 43.3086 0.202908 42.8389 0.0830078 42.2991C-0.0368923 41.7394 -0.0269007 41.1497 0.112983 40.5301L6.39468 11.1796H20.3117Z" fill="white"/>
<path d="M75.153 8.11689H8.19235C7.44187 8.11689 6.90635 7.3893 7.12922 6.67246L7.43213 5.69813C7.56991 5.25495 7.968 4.9437 8.4312 4.917L76.8215 0.974095C77.6154 0.928322 78.2 1.70591 77.9356 2.45617L76.203 7.3734C76.0461 7.81891 75.6252 8.11689 75.153 8.11689Z" fill="white"/>
</svg>
