<svg preserveAspectRatio="none" width="100%" height="100%" overflow="visible" style="display: block;" viewBox="0 0 20 19.6436" fill="none" xmlns="http://www.w3.org/2000/svg">
<g id="Group 177">
<g id="Group 176">
<path id="Vector" d="M15.7599 2.671L17.3279 4.23964C17.394 4.30573 17.3623 4.44519 17.2575 4.55005L11.2313 10.5771L9.09183 11.2824C8.80583 11.3771 8.62329 11.1945 8.71807 10.9085L9.42336 8.76849L15.4495 2.74142C15.5544 2.63655 15.6938 2.60492 15.7599 2.671ZM19.5198 1.32923L18.6715 0.480563C18.4072 0.216224 17.8518 0.342266 17.4301 0.762243L16.4534 1.73916C16.3485 1.84403 16.3169 1.98349 16.3829 2.04957L17.951 3.61821C18.017 3.68429 18.1565 3.65266 18.2613 3.54779L19.2381 2.57087C19.658 2.14916 19.7841 1.59357 19.5198 1.32923Z" fill="var(--fill-0, #EBEBEB)"/>
</g>
<g id="Vector_2">
<path d="M2.44453 8.17539H11.5242V17.143H2.44453V8.17539Z" fill="#D9D9D9" fill-opacity="0.2"/>
<path fill-rule="evenodd" clip-rule="evenodd" d="M1.89888 7.62974H0V8.72105H1.89888V16.5973H0V17.6886H1.89888V19.6436H2.99019V17.6886H10.9786V19.6436H12.0699V17.6886H13.9688V16.5973H12.0699V8.72105H13.9688V7.62974H12.0699V5.67481H10.9786V7.62974H2.99019V5.67481H1.89888V7.62974ZM10.9786 8.72105H2.99019V16.5973H10.9786V8.72105Z" fill="var(--fill-0, white)" fill-opacity="0.5"/>
</g>
</g>
</svg>
