<svg preserveAspectRatio="none" width="100%" height="100%" overflow="visible" style="display: block;" viewBox="0 0 12.1423 12.1429" fill="none" xmlns="http://www.w3.org/2000/svg">
<g id="Group 176">
<path id="Vector" d="M7.90222 2.67109L9.47022 4.23976C9.53628 4.30585 9.50464 4.44531 9.39979 4.55018L3.37378 10.5774L1.23436 11.2827C0.948367 11.3774 0.765839 11.1948 0.860611 10.9087L1.56588 8.76873L7.59189 2.74151C7.69674 2.63664 7.83616 2.605 7.90222 2.67109ZM11.6621 1.32928L10.8138 0.480593C10.5495 0.216248 9.9941 0.342293 9.57246 0.76228L8.59572 1.73922C8.49087 1.84409 8.45922 1.98355 8.52528 2.04964L10.0933 3.61832C10.1593 3.6844 10.2988 3.65277 10.4036 3.5479L11.3804 2.57096C11.8003 2.14923 11.9263 1.59362 11.6621 1.32928Z" fill="var(--fill-0, white)"/>
</g>
</svg>
