<svg preserveAspectRatio="none" width="100%" height="100%" overflow="visible" style="display: block;" viewBox="0 0 25.0004 18.2427" fill="none" xmlns="http://www.w3.org/2000/svg">
<g id="Group 175">
<path id="Vector" d="M20.5703 2.79057L22.2086 4.42944C22.2776 4.49848 22.2446 4.64419 22.135 4.75375L15.8389 11.0506L13.6036 11.7875C13.3048 11.8865 13.1141 11.6957 13.2131 11.3968L13.95 9.16104L20.2461 2.86414C20.3556 2.75458 20.5013 2.72153 20.5703 2.79057ZM24.4987 1.38873L23.6124 0.502068C23.3363 0.225895 22.756 0.35758 22.3154 0.796359L21.2949 1.81701C21.1854 1.92657 21.1523 2.07228 21.2213 2.14132L22.8596 3.78019C22.9286 3.84923 23.0743 3.81617 23.1838 3.70661L24.2044 2.68596C24.6431 2.24537 24.7748 1.6649 24.4987 1.38873Z" fill="var(--fill-0, #EBEBEB)"/>
<g id="Vector_2">
<path d="M22.3478 12.2228L21.9225 14.2295L13.908 17.574L14.4795 14.8716L19.251 13.2261L15.1706 11.5539L15.7421 8.87831L22.3478 12.2228Z" fill="var(--fill-0, white)" fill-opacity="0.2"/>
<path d="M9.84863 18.2427H7.78851L12.5733 8.20922H14.6334L9.84863 18.2427Z" fill="var(--fill-0, white)" fill-opacity="0.2"/>
<path d="M0 14.2295L0.425315 12.2228L8.43985 8.87831L7.86833 11.5539L3.09683 13.2261L7.17719 14.8716L6.60567 17.574L0 14.2295Z" fill="var(--fill-0, white)" fill-opacity="0.2"/>
</g>
</g>
</svg>
