<svg width="30" height="30" viewBox="0 0 30 30" fill="none" xmlns="http://www.w3.org/2000/svg">
<g clip-path="url(#clip0_106_1274)">
<path d="M24.6839 7.40302L26.6498 9.36963C26.7327 9.45248 26.693 9.62732 26.5615 9.75879L19.0063 17.315L16.324 18.1991C15.9654 18.3179 15.7365 18.089 15.8554 17.7303L16.7396 15.0475L24.2948 7.49131C24.4263 7.35983 24.6011 7.32017 24.6839 7.40302ZM29.3979 5.72083L28.3343 4.65686C28.0031 4.32546 27.3067 4.48348 26.778 5.01L25.5534 6.23477C25.422 6.36624 25.3823 6.54108 25.4651 6.62393L27.431 8.59054C27.5138 8.67339 27.6886 8.63372 27.8201 8.50225L29.0447 7.27749C29.5712 6.74878 29.7292 6.05224 29.3979 5.72083Z" fill="white"/>
<path d="M26.817 18.7217L26.3067 21.1297L16.6893 25.1431L17.3752 21.9003L23.1009 19.9257L18.2045 17.9191L18.8903 14.7084L26.817 18.7217Z" fill="white" fill-opacity="0.2"/>
<path d="M11.8182 25.9455H9.3461L15.0878 13.9055H17.5599L11.8182 25.9455Z" fill="white" fill-opacity="0.2"/>
<path d="M0 21.1297L0.510372 18.7217L10.1277 14.7084L9.44188 17.9191L3.71615 19.9257L8.61253 21.9003L7.92672 25.1431L0 21.1297Z" fill="white" fill-opacity="0.2"/>
</g>
<defs>
<clipPath id="clip0_106_1274">
<rect width="30" height="30" fill="white"/>
</clipPath>
</defs>
</svg>
