<svg width="32" height="32" viewBox="0 0 32 32" fill="none" xmlns="http://www.w3.org/2000/svg">
<g clip-path="url(#clip0_21_4680)">
<path opacity="0.111111" fill-rule="evenodd" clip-rule="evenodd" d="M10.1658 26.7895C6.61201 24.3674 2.88072 21.1146 0.529378 18.8575L0.86296 18.5245C3.20293 20.7706 6.91337 24.0045 10.438 26.4067C12.2016 27.6087 13.9077 28.5948 15.3659 29.1476C16.0949 29.424 16.7516 29.588 17.316 29.6211C17.8796 29.6541 18.3359 29.556 18.6842 29.3251C19.6001 28.7181 19.9307 27.6714 19.9923 26.3399C20.0345 25.427 19.9499 24.426 19.8628 23.3946C19.8222 22.9142 19.781 22.4272 19.7519 21.9395C19.6617 20.4303 19.6885 18.922 20.2709 17.7272C20.8664 16.5059 22.0214 15.6504 24.0803 15.4071C25.0484 15.2927 25.7381 15.0217 26.2031 14.6543C26.6638 14.2904 26.9189 13.8206 27.0015 13.2735C27.1694 12.1611 26.6234 10.7112 25.5465 9.25233C24.4765 7.80282 22.9112 6.38488 21.1191 5.34487C19.3262 4.30443 17.3217 3.65098 15.3716 3.70758L15.3575 3.24137C17.4227 3.18142 19.5161 3.87242 21.362 4.94365C23.2087 6.0153 24.8233 7.47627 25.9327 8.97914C27.0351 10.4726 27.668 12.0486 27.4728 13.3417C27.3739 13.9974 27.0619 14.5753 26.5024 15.0173C25.9471 15.4559 25.1635 15.7489 24.1373 15.8702C22.2077 16.0982 21.213 16.8778 20.7009 17.9281C20.1759 19.0051 20.1374 20.4048 20.2275 21.9123C20.2551 22.3731 20.2949 22.8452 20.3348 23.3181C20.4231 24.3659 20.5118 25.4179 20.4682 26.361C20.4047 27.736 20.0591 28.9771 18.9513 29.7114C18.49 30.017 17.9195 30.1237 17.2876 30.0867C16.6565 30.0497 15.949 29.8689 15.1938 29.5826C13.6837 29.0101 11.9414 27.9996 10.1658 26.7895Z" fill="white"/>
<path opacity="0.222222" fill-rule="evenodd" clip-rule="evenodd" d="M7.20121 24.2886C4.70175 21.0605 2.29793 17.0295 0.846888 14.302L1.69204 13.8711C3.12828 16.5708 5.5043 20.5527 7.96062 23.7251C9.19068 25.3138 10.4247 26.6782 11.5568 27.5783C12.1227 28.0282 12.646 28.3482 13.1154 28.527C13.583 28.7051 13.9688 28.7331 14.2872 28.6424C15.1883 28.386 15.7675 27.6234 16.2201 26.4541C16.5304 25.6524 16.7518 24.7453 16.9843 23.7933C17.0944 23.3422 17.2069 22.8811 17.3326 22.4163C17.7101 21.0198 18.2054 19.6036 19.1449 18.637C20.1253 17.6283 21.5247 17.1692 23.5339 17.5495C24.4171 17.7167 25.0755 17.6641 25.5533 17.4847C26.0209 17.3091 26.3497 16.9997 26.5651 16.5777C27.0125 15.7012 26.98 14.3061 26.4537 12.6965C25.9345 11.1086 24.963 9.40421 23.6754 7.97303C22.3866 6.54066 20.8049 5.40781 19.0763 4.91837L19.341 4.02226C21.2916 4.57453 23.0195 5.83274 24.3904 7.35646C25.7625 8.88137 26.8008 10.6981 27.3612 12.4121C27.9145 14.1044 28.0314 15.7919 27.4175 16.9946C27.1023 17.6122 26.5979 18.0915 25.8946 18.3556C25.2014 18.616 24.3512 18.6543 23.353 18.4654C21.5996 18.1335 20.5508 18.5439 19.8353 19.2801C19.0788 20.0584 18.6303 21.2624 18.2538 22.655C18.1422 23.0678 18.0366 23.4998 17.9299 23.9363C17.6893 24.9202 17.4434 25.9264 17.1112 26.7846C16.6269 28.0357 15.8966 29.1559 14.5533 29.5382C13.9739 29.7031 13.3657 29.6233 12.7698 29.3963C12.1755 29.1699 11.5658 28.7872 10.9561 28.3024C9.73689 27.3331 8.44905 25.9002 7.20121 24.2886Z" fill="white"/>
<path opacity="0.333333" fill-rule="evenodd" clip-rule="evenodd" d="M5.23355 21.0783C3.938 17.4299 2.97611 13.0866 2.48502 10.1997L3.89497 9.96985C4.3781 12.8101 5.32352 17.0702 6.58366 20.6189C7.21528 22.3976 7.91292 23.9596 8.65002 25.0701C9.42103 26.2317 10.0884 26.6796 10.5932 26.694C11.3653 26.7159 12.053 26.2705 12.8026 25.3622C13.3167 24.7391 13.778 24.0057 14.2721 23.2204C14.5106 22.8412 14.7568 22.4499 15.0201 22.053C15.7868 20.8979 16.6958 19.7094 17.9039 19.0712C19.1892 18.3921 20.6916 18.3917 22.462 19.3425C23.1842 19.7304 23.7492 19.8518 24.1751 19.8294C24.5851 19.8077 24.9182 19.6509 25.1992 19.373C25.7994 18.7794 26.1889 17.5929 26.1993 16.0135C26.2094 14.4678 25.8526 12.6864 25.1325 11.0581C24.4114 9.4277 23.3478 7.99822 21.981 7.09761L22.7791 5.9368C24.4343 7.02741 25.6484 8.70274 26.4442 10.5022C27.2409 12.3036 27.64 14.277 27.6286 16.0225C27.6174 17.7343 27.2079 19.3755 26.2151 20.3574C25.6995 20.8672 25.0376 21.1851 24.252 21.2266C23.4823 21.2672 22.6511 21.0401 21.7745 20.5693C20.3472 19.8028 19.365 19.8892 18.5827 20.3025C17.7232 20.7566 16.9816 21.6659 16.2187 22.8154C16.0002 23.1447 15.7777 23.4979 15.551 23.8579C15.0303 24.6848 14.4867 25.5479 13.9145 26.2414C13.0804 27.2523 12.0094 28.1341 10.5516 28.0926C9.27254 28.0562 8.2469 27.0309 7.45145 25.8325C6.62209 24.583 5.87978 22.8982 5.23355 21.0783Z" fill="white"/>
<path opacity="0.444444" fill-rule="evenodd" clip-rule="evenodd" d="M4.43179 17.4788C4.35449 13.8143 4.79231 9.62575 5.21802 6.8858L7.10632 7.16435C6.69034 9.84159 6.26687 13.9175 6.34119 17.4406C6.37848 19.2083 6.54047 20.7833 6.86641 21.9585C7.21359 23.2103 7.65302 23.6775 7.96879 23.7866C8.54343 23.9853 9.20895 23.8365 10.1416 23.2492C10.7819 22.846 11.4002 22.3374 12.0771 21.7806C12.4108 21.5061 12.7588 21.2199 13.1307 20.9288C14.1767 20.1099 15.4072 19.263 16.7698 19.0222C18.2458 18.7614 19.6983 19.2332 21.0717 20.6451C21.5872 21.1752 22.022 21.4117 22.3534 21.497C22.6649 21.5773 22.9472 21.5414 23.2305 21.4C23.8601 21.0858 24.5394 20.2137 25.0161 18.8252C25.4784 17.4784 25.6873 15.8168 25.5278 14.1874C25.3679 12.5552 24.846 11.0236 23.918 9.87722L25.4175 8.72479C26.6341 10.2277 27.245 12.1322 27.4289 14.0106C27.6131 15.8918 27.3767 17.8152 26.8272 19.4156C26.2922 20.9742 25.3933 22.4114 24.101 23.0563C23.4234 23.3944 22.6587 23.5005 21.8653 23.2961C21.0917 23.0968 20.3634 22.6221 19.6856 21.9252C18.6722 20.8835 17.8419 20.724 17.1106 20.8533C16.2658 21.0025 15.3648 21.567 14.3268 22.3795C14.0404 22.6036 13.7388 22.8514 13.4281 23.1066C12.6997 23.7049 11.9222 24.3436 11.1783 24.8121C10.0939 25.495 8.76186 26.0352 7.33029 25.5404C6.04109 25.0948 5.3869 23.757 5.02274 22.444C4.63736 21.0544 4.47031 19.3049 4.43179 17.4788Z" fill="white"/>
<path opacity="0.555556" fill-rule="evenodd" clip-rule="evenodd" d="M4.77827 13.9609C5.80863 10.6228 7.46134 6.9665 8.66765 4.61643L10.7963 5.66355C9.62671 7.94203 8.03624 11.4684 7.05871 14.6355C6.56765 16.2264 6.25182 17.6622 6.19697 18.7772C6.13735 19.9889 6.40344 20.3998 6.53403 20.4975C6.88903 20.763 7.42457 20.8445 8.41458 20.591C9.09529 20.4167 9.77766 20.1475 10.5433 19.8455C10.9295 19.6932 11.337 19.5325 11.776 19.3714C12.9664 18.9347 14.3886 18.5019 15.7656 18.6867C17.2826 18.8902 18.5252 19.8007 19.3776 21.5344C19.6689 22.1269 19.9601 22.418 20.1777 22.5546C20.3744 22.6782 20.5704 22.7153 20.8041 22.6793C21.3564 22.5944 22.1698 22.0764 22.996 20.9889C23.7893 19.9448 24.4562 18.5491 24.7895 17.0778C25.1235 15.6034 25.1048 14.1366 24.6347 12.9055L26.8661 12.0889C27.5405 13.855 27.5186 15.8025 27.1153 17.5828C26.7112 19.3662 25.9066 21.0657 24.9075 22.3807C23.9414 23.6524 22.6418 24.7575 21.1737 24.9832C20.3974 25.1025 19.6064 24.9667 18.891 24.5173C18.1965 24.081 17.6504 23.3988 17.2311 22.5458C16.6621 21.3887 16.0332 21.0765 15.4422 20.9972C14.7113 20.8991 13.7889 21.1234 12.6121 21.5552C12.301 21.6693 11.9635 21.8021 11.6122 21.9403C10.7693 22.2719 9.84668 22.6348 9.0174 22.8472C7.80844 23.1567 6.33599 23.2843 5.0877 22.3506C3.93567 21.4889 3.75359 19.9632 3.81746 18.665C3.88609 17.27 4.26539 15.6226 4.77827 13.9609Z" fill="white"/>
<path opacity="0.666667" fill-rule="evenodd" clip-rule="evenodd" d="M6.22655 10.7827C8.15058 8.07288 10.7279 5.26392 12.5132 3.5015L14.5431 5.47203C12.8276 7.16558 10.3717 9.8479 8.57394 12.38C7.6696 13.6537 6.97998 14.8228 6.61613 15.7693C6.43458 16.2416 6.35828 16.5976 6.34754 16.8455C6.34238 16.9645 6.35323 17.0404 6.36365 17.0828C6.36872 17.1035 6.37358 17.1159 6.37632 17.122C6.37773 17.1252 6.37877 17.1271 6.37935 17.1281C6.37992 17.1291 6.38022 17.1296 6.38027 17.1296C6.5444 17.3609 6.88754 17.5775 7.82395 17.6349C8.4694 17.6745 9.13263 17.6326 9.8974 17.5843C10.2932 17.5593 10.7162 17.5325 11.178 17.5145C12.3809 17.4675 13.8549 17.4859 15.1115 18.0831C16.5174 18.7513 17.418 20.016 17.6868 21.8957C17.7693 22.4729 17.9303 22.7619 18.0421 22.895C18.1357 23.0064 18.2369 23.0628 18.3914 23.0876C18.7986 23.1528 19.5993 22.9757 20.6355 22.2602C22.6905 20.8411 24.4717 18.1502 24.3545 15.7677L27.2099 15.6332C27.3891 19.2773 24.8435 22.7791 22.2833 24.547C21.0118 25.425 19.4327 26.09 17.9299 25.8494C17.1294 25.7212 16.3931 25.3378 15.8343 24.6728C15.2937 24.0294 14.9874 23.2055 14.8556 22.2836C14.6957 21.1652 14.2714 20.7947 13.863 20.6006C13.3053 20.3356 12.4756 20.2645 11.292 20.3108C10.9938 20.3224 10.6608 20.3431 10.3099 20.3649C9.44623 20.4185 8.47415 20.4788 7.64525 20.428C6.43653 20.3539 4.95857 20.0314 4.0324 18.7262C3.15742 17.493 3.49529 15.9421 3.94058 14.7837C4.42652 13.5195 5.26998 12.13 6.22655 10.7827Z" fill="white"/>
<path opacity="0.777778" fill-rule="evenodd" clip-rule="evenodd" d="M8.56433 8.2775C11.0974 6.39455 14.2411 4.61777 16.3628 3.55263L17.8847 6.45784C15.8668 7.47083 12.9066 9.14918 10.5813 10.8777C9.40972 11.7486 8.47796 12.5749 7.90241 13.2841C7.43152 13.8643 7.37973 14.1371 7.36948 14.1853C7.42748 14.3181 7.6098 14.5441 8.31858 14.8224C8.8663 15.0374 9.44151 15.184 10.1254 15.3582C10.4897 15.451 10.8848 15.5517 11.323 15.6747C12.4158 15.9817 13.7961 16.4407 14.805 17.3944C15.9499 18.4767 16.4071 19.9732 16.0839 21.8183C15.9962 22.3189 16.0583 22.5639 16.0931 22.6501C16.1161 22.7071 16.138 22.7339 16.2068 22.769C16.4435 22.8897 17.1093 22.987 18.2091 22.6575C20.3885 22.0046 22.6488 20.1795 23.2 18.1585L26.4223 19.0008C25.48 22.4556 22.0633 24.9173 19.185 25.7795C17.7558 26.2077 16.0476 26.3695 14.6652 25.6642C13.9245 25.2862 13.3256 24.6772 12.9918 23.8512C12.6697 23.0541 12.6386 22.1686 12.7967 21.2664C12.9649 20.3061 12.7144 19.9568 12.4882 19.7431C12.1261 19.4007 11.472 19.1132 10.4033 18.8131C10.1484 18.7415 9.85468 18.6663 9.54098 18.5859C8.74626 18.3822 7.82319 18.1456 7.07702 17.8527C5.98851 17.4253 4.65194 16.6619 4.16365 15.0956C3.6918 13.5819 4.54251 12.1754 5.29109 11.2531C6.12068 10.2309 7.30672 9.21235 8.56433 8.2775Z" fill="white"/>
<path opacity="0.888889" fill-rule="evenodd" clip-rule="evenodd" d="M11.5112 6.6647C14.335 5.70067 17.6653 5.0125 19.8712 4.66873L20.4704 8.35369C18.3977 8.6767 15.3053 9.32116 12.7663 10.188C11.4847 10.6255 10.4513 11.0842 9.7721 11.5278C9.45818 11.7328 9.30072 11.8798 9.2255 11.9624C9.23091 11.9722 9.23718 11.9828 9.24446 11.9944C9.31491 12.1069 9.45895 12.2753 9.73648 12.5046C10.1445 12.8417 10.5854 13.1209 11.128 13.4646C11.4266 13.6538 11.756 13.8624 12.1277 14.111C13.0117 14.7022 14.1641 15.5473 14.8219 16.7643C15.5781 18.1634 15.5361 19.7429 14.6685 21.3821C14.5118 21.678 14.4791 21.8515 14.4727 21.9221C14.6025 22.0242 15.0605 22.2564 16.015 22.2759C18.056 22.3176 20.4483 21.3664 21.4372 19.8536L24.6478 21.8648C22.7175 24.8177 18.824 26.0655 15.9354 26.0065C14.5006 25.9771 12.8267 25.6206 11.7154 24.5018C11.117 23.8995 10.7291 23.1141 10.668 22.2024C10.6093 21.3245 10.8611 20.4647 11.2842 19.6655C11.6692 18.9379 11.5362 18.6637 11.4529 18.5095C11.2711 18.1732 10.8353 17.7656 9.9777 17.1921C9.78565 17.0637 9.55624 16.9178 9.30745 16.7596C8.65627 16.3455 7.87234 15.847 7.27818 15.3562C6.41095 14.6397 5.35627 13.4917 5.38087 11.8093C5.40519 10.1471 6.70399 9.04604 7.6567 8.4238C8.72844 7.72384 10.1114 7.14257 11.5112 6.6647ZM9.19199 11.8691C9.19204 11.867 9.19208 11.8649 9.19211 11.8627C9.1921 11.8633 9.19208 11.8639 9.19206 11.8646C9.19202 11.8659 9.19198 11.8674 9.19199 11.8691Z" fill="white"/>
<path fill-rule="evenodd" clip-rule="evenodd" d="M14.7292 6.12871C17.5208 6.06948 20.67 6.40279 22.7205 6.72322L22.0463 10.8524C20.1471 10.5556 17.2707 10.2573 14.8218 10.3092C13.583 10.3355 12.5818 10.4499 11.9044 10.6388C11.8037 10.6669 11.7199 10.6937 11.6507 10.7182C11.6868 10.7914 11.7371 10.8825 11.807 10.9941C12.0559 11.3916 12.341 11.7394 12.7059 12.1844C12.9144 12.4387 13.1489 12.7247 13.4176 13.07C14.0244 13.8497 14.8371 14.9837 15.0749 16.3374C15.3515 17.9116 14.808 19.4093 13.4974 20.6915C13.4391 20.7486 13.3937 20.7982 13.3585 20.8402C13.5038 20.9571 13.7823 21.136 14.2759 21.3064C15.9687 21.8909 18.1849 21.7057 19.357 20.7514L22.0911 23.9655C19.3999 26.1566 15.4581 26.1489 12.8534 25.2495C11.5582 24.8023 10.085 23.9651 9.37623 22.5366C8.9934 21.765 8.87121 20.8792 9.103 19.9742C9.3259 19.1038 9.83786 18.3582 10.4752 17.7347C10.9226 17.297 10.8788 17.1144 10.8648 17.0561C10.8639 17.0521 10.863 17.0487 10.8625 17.0458C10.816 16.7808 10.5996 16.3517 10.017 15.6031C9.89582 15.4474 9.74432 15.2618 9.57717 15.0571C9.123 14.5007 8.55326 13.8028 8.16222 13.1782C7.59106 12.266 6.93839 10.8392 7.49749 9.21225C8.06224 7.56891 9.68693 6.90926 10.7324 6.61762C11.9251 6.28493 13.3478 6.15802 14.7292 6.12871ZM11.5609 10.4658C11.5616 10.4661 11.5626 10.4723 11.5619 10.4834C11.5599 10.4711 11.5603 10.4655 11.5609 10.4658ZM11.3674 10.8455C11.3611 10.8509 11.3574 10.8534 11.3571 10.8533C11.3569 10.8532 11.36 10.8505 11.3674 10.8455Z" fill="white"/>
</g>
<defs>
<clipPath id="clip0_21_4680">
<rect width="32" height="32" fill="white"/>
</clipPath>
</defs>
</svg>
