<svg width="30" height="30" viewBox="0 0 30 30" fill="none" xmlns="http://www.w3.org/2000/svg">
<g clip-path="url(#clip0_106_1613)">
<g clip-path="url(#clip1_106_1613)">
<path d="M0 11.3987V29.7327H4.5835V11.3987H0Z" fill="#D9D9D9"/>
<path d="M9.167 29.7327V11.3987H4.5835V29.7327H9.167Z" fill="#BFBFBF"/>
<path d="M9.167 11.3987V29.7327H13.7505V11.3987H9.167Z" fill="#A6A6A6"/>
<path d="M18.334 29.7327V11.3987H13.7505V29.7327H18.334Z" fill="#8C8C8C"/>
<path d="M23.6398 4.27383L25.9918 6.62679C26.0909 6.72592 26.0434 6.93511 25.8862 7.09241L16.8469 16.133L13.6377 17.1909C13.2087 17.333 12.9349 17.0591 13.0771 16.63L14.135 13.4201L23.1742 4.37946C23.3315 4.22216 23.5407 4.17471 23.6398 4.27383ZM29.2797 2.26117L28.0072 0.988175C27.6108 0.591667 26.7777 0.780731 26.1452 1.4107L24.68 2.87607C24.5227 3.03337 24.4753 3.24256 24.5744 3.34169L26.9264 5.69464C27.0255 5.79377 27.2347 5.74631 27.3919 5.58901L28.8571 4.12364C29.487 3.49107 29.6761 2.65768 29.2797 2.26117Z" fill="white"/>
</g>
</g>
<defs>
<clipPath id="clip0_106_1613">
<rect width="30" height="30" fill="white"/>
</clipPath>
<clipPath id="clip1_106_1613">
<rect width="30" height="30" fill="white"/>
</clipPath>
</defs>
</svg>
