<svg width="30" height="30" viewBox="0 0 30 30" fill="none" xmlns="http://www.w3.org/2000/svg">
<g clip-path="url(#clip0_106_1500)">
<path d="M23.6398 4.27383L25.9918 6.62679C26.0909 6.72592 26.0434 6.93511 25.8862 7.09241L16.8469 16.133L13.6377 17.1909C13.2087 17.333 12.9349 17.0591 13.0771 16.63L14.135 13.4201L23.1742 4.37946C23.3315 4.22216 23.5407 4.17471 23.6398 4.27383ZM29.2797 2.26117L28.0072 0.988175C27.6108 0.591667 26.7777 0.780731 26.1452 1.4107L24.68 2.87607C24.5227 3.03337 24.4753 3.24256 24.5744 3.34169L26.9264 5.69464C27.0255 5.79377 27.2347 5.74631 27.3919 5.58901L28.8571 4.12364C29.487 3.49107 29.6761 2.65768 29.2797 2.26117Z" fill="white"/>
<path d="M3.6668 12.5304H17.2863V25.9818H3.6668V12.5304Z" fill="#D9D9D9" fill-opacity="0.2"/>
<path fill-rule="evenodd" clip-rule="evenodd" d="M2.84832 11.7119H0V13.3489H2.84832V25.1633H0V26.8003H2.84832V29.7327H4.48528V26.8003H16.4679V29.7327H18.1048V26.8003H20.9531V25.1633H18.1048V13.3489H20.9531V11.7119H18.1048V8.77954H16.4679V11.7119H4.48528V8.77954H2.84832V11.7119ZM16.4679 13.3489H4.48528V25.1633H16.4679V13.3489Z" fill="white" fill-opacity="0.5"/>
</g>
<defs>
<clipPath id="clip0_106_1500">
<rect width="30" height="30" fill="white"/>
</clipPath>
</defs>
</svg>
